Based on the novel by Ihsan Abdel Qoddous, A Man in Our House stars Omar Sharif as a member of the underground resistance to the British occupation of Egypt in the 1940's who seeks refuge from the Political Police in the home of a civil servant and his family. 

   General
      Complete name : Fi baitina rajul.avi
      Format : AVI
      Format/Info : Audio Video Interleave
      File size : 1.78 GiB
      Duration : 2h 33mn
      Overall bit rate : 1 666 Kbps
      Writing application : FairUse Wizard - http://fairusewizard.com
   Video #0
      ID : 0
      Format : MPEG-4 Visual
      Format profile : AdvancedSimple@L5
      Format settings, BVOP : Yes
      Format settings, QPel : No
      Format settings, GMC : No warppoints
      Format settings, Matrix : Default (MPEG)
      Muxing mode : Packed bitstream
      Codec ID : XVID
      Codec ID/Hint : XviD
      Duration : 2h 33mn
      Bit rate : 1 527 Kbps
      Width : 624 pixels
      Height : 464 pixels
      Display aspect ratio : 4:3
      Frame rate : 29.970 fps
      Resolution : 24 bits
      Colorimetry : 4:2:0
      Scan type : Progressive
      Bits/(Pixel*Frame) : 0.176
      Stream size : 1.63 GiB (92%)
      Writing library : XviD 1.2.1 (UTC 2008-12-04)
   Audio #1
      ID : 1
      Format : MPEG Audio
      Format version : Version 1
      Format profile : Layer 3
      Codec ID : 55
      Codec ID/Hint : MP3
      Duration : 2h 33mn
      Bit rate mode : Constant
      Bit rate : 128 Kbps
      Channel(s) : 2 channels
      Sampling rate : 48.0 KHz
      Resolution : 16 bits
      Stream size : 140 MiB (8%)
      Alignment : Aligned on interleaves
      Interleave, duration : 33 ms (1.00 video frame)
      Interleave, preload duration : 504 ms
      Writing library : LAME3.97 
      Encoding settings : -m j -V 4 -q 2 -lowpass 17 -b 128
 
http://www.imdb.com/title/tt0366442/

Arabic audio; English, French and Portuguese subtitles

Henry Barakat - Fi baitina rajul [A Man in Our House] (1961)